<?xml version="1.0" encoding="utf-8"?>
<!-- Generator: Adobe Illustrator 16.0.4, SVG Export Plug-In . SVG Version: 6.00 Build 0)  -->
<!DOCTYPE svg PUBLIC "-//W3C//DTD SVG 1.1//EN" "http://www.w3.org/Graphics/SVG/1.1/DTD/svg11.dtd">
<svg version="1.1" id="Layer_1" xmlns="http://www.w3.org/2000/svg" xmlns:xlink="http://www.w3.org/1999/xlink" x="0px" y="0px"
	 width="240px" height="91.656px" viewBox="0 0 240 91.656" enable-background="new 0 0 240 91.656" xml:space="preserve">
<g>
	<g>
		<path fill="#292D43" d="M82.324,31.456c0-0.281,0.224-0.533,0.533-0.533h6.589c3.449,0,6.281,2.804,6.281,6.197
			c0,3.477-2.833,6.309-6.254,6.309h-3.505v6.589c0,0.28-0.252,0.533-0.532,0.533h-2.58c-0.309,0-0.533-0.253-0.533-0.533V31.456z
			 M89.222,40.008c1.57,0,2.888-1.262,2.888-2.916c0-1.542-1.318-2.72-2.888-2.72h-3.253v5.636H89.222z"/>
		<path fill="#292D43" d="M97.35,49.823l8.722-18.872c0.083-0.168,0.224-0.309,0.476-0.309h0.279c0.282,0,0.394,0.14,0.478,0.309
			l8.637,18.872c0.168,0.365-0.057,0.729-0.477,0.729h-2.439c-0.421,0-0.617-0.169-0.814-0.562l-1.374-3.027h-8.384l-1.374,3.027
			c-0.112,0.281-0.364,0.562-0.812,0.562h-2.44C97.407,50.552,97.182,50.188,97.35,49.823z M109.464,43.85l-2.803-6.169h-0.084
			l-2.749,6.169H109.464z"/>
		<path fill="#292D43" d="M120.592,31.456c0-0.281,0.225-0.533,0.533-0.533h2.58c0.28,0,0.533,0.252,0.533,0.533v15.731h7.149
			c0.308,0,0.533,0.253,0.533,0.532v2.3c0,0.28-0.226,0.533-0.533,0.533h-10.263c-0.309,0-0.533-0.253-0.533-0.533V31.456z"/>
		<path fill="#292D43" d="M145.322,30.643c5.608,0,10.095,4.515,10.095,10.123c0,5.608-4.486,10.067-10.095,10.067
			s-10.067-4.459-10.067-10.067C135.254,35.157,139.713,30.643,145.322,30.643z M145.322,47.187c3.533,0,6.449-2.888,6.449-6.421
			s-2.916-6.478-6.449-6.478c-3.534,0-6.422,2.944-6.422,6.478S141.788,47.187,145.322,47.187z"/>
		<path fill="#292D43" d="M166.907,49.823l8.721-18.872c0.084-0.168,0.226-0.309,0.478-0.309h0.279c0.28,0,0.394,0.14,0.478,0.309
			l8.637,18.872c0.169,0.365-0.057,0.729-0.477,0.729h-2.439c-0.422,0-0.617-0.169-0.813-0.562l-1.374-3.027h-8.385l-1.374,3.027
			c-0.112,0.281-0.364,0.562-0.812,0.562h-2.44C166.963,50.552,166.739,50.188,166.907,49.823z M179.02,43.85l-2.803-6.169h-0.086
			l-2.747,6.169H179.02z"/>
		<path fill="#292D43" d="M190.15,31.456c0-0.281,0.224-0.533,0.532-0.533h2.58c0.28,0,0.533,0.252,0.533,0.533v15.731h7.15
			c0.308,0,0.531,0.253,0.531,0.532v2.3c0,0.28-0.224,0.533-0.531,0.533h-10.264c-0.309,0-0.532-0.253-0.532-0.533V31.456z"/>
		<path fill="#292D43" d="M207.924,34.288h-4.291c-0.307,0-0.533-0.252-0.533-0.533v-2.299c0-0.281,0.227-0.533,0.533-0.533h12.254
			c0.309,0,0.533,0.252,0.533,0.533v2.299c0,0.28-0.225,0.533-0.533,0.533h-4.291v15.731c0,0.28-0.252,0.533-0.533,0.533h-2.607
			c-0.279,0-0.531-0.253-0.531-0.533V34.288z"/>
		<path fill="#292D43" d="M229.905,30.643c5.607,0,10.096,4.515,10.096,10.123c0,5.608-4.488,10.067-10.096,10.067
			s-10.066-4.459-10.066-10.067C219.838,35.157,224.297,30.643,229.905,30.643z M229.905,47.187c3.534,0,6.45-2.888,6.45-6.421
			s-2.916-6.478-6.45-6.478c-3.533,0-6.421,2.944-6.421,6.478S226.372,47.187,229.905,47.187z"/>
	</g>
	<g>
		<path fill="#292D43" d="M82.324,58.118c0-0.28,0.253-0.532,0.533-0.532h2.607c0.309,0,0.533,0.252,0.533,0.532v7.432h9.142v-7.432
			c0-0.28,0.225-0.532,0.533-0.532h2.58c0.281,0,0.534,0.252,0.534,0.532v18.563c0,0.28-0.253,0.533-0.534,0.533h-2.58
			c-0.308,0-0.533-0.253-0.533-0.533v-7.739h-9.142v7.739c0,0.28-0.224,0.533-0.533,0.533h-2.607c-0.28,0-0.533-0.253-0.533-0.533
			V58.118z"/>
		<path fill="#292D43" d="M114.652,57.305c5.608,0,10.093,4.514,10.093,10.123c0,5.607-4.485,10.066-10.093,10.066
			c-5.608,0-10.068-4.459-10.068-10.066C104.584,61.819,109.043,57.305,114.652,57.305z M114.652,73.85
			c3.533,0,6.448-2.889,6.448-6.422s-2.915-6.479-6.448-6.479c-3.534,0-6.422,2.945-6.422,6.479S111.118,73.85,114.652,73.85z"/>
		<path fill="#292D43" d="M130.237,58.118c0-0.28,0.253-0.532,0.533-0.532h2.663c0.31,0,0.533,0.252,0.533,0.532v11.469
			c0,2.385,1.626,4.264,4.065,4.264c2.44,0,4.096-1.879,4.096-4.234V58.118c0-0.28,0.223-0.532,0.533-0.532h2.662
			c0.281,0,0.533,0.252,0.533,0.532v11.666c0,4.262-3.395,7.711-7.824,7.711c-4.402,0-7.795-3.449-7.795-7.711V58.118z"/>
		<path fill="#292D43" d="M151.599,74.466l1.01-1.739c0.225-0.393,0.7-0.393,0.954-0.195c0.141,0.084,2.412,1.738,4.234,1.738
			c1.457,0,2.552-0.953,2.552-2.16c0-1.43-1.206-2.41-3.562-3.364c-2.636-1.065-5.271-2.748-5.271-6.058
			c0-2.495,1.852-5.383,6.311-5.383c2.858,0,5.046,1.458,5.606,1.879c0.28,0.168,0.364,0.645,0.169,0.925l-1.066,1.599
			c-0.225,0.336-0.645,0.561-0.98,0.336c-0.225-0.14-2.355-1.542-3.898-1.542c-1.598,0-2.468,1.065-2.468,1.963
			c0,1.318,1.038,2.216,3.31,3.141c2.72,1.094,5.859,2.72,5.859,6.337c0,2.889-2.496,5.553-6.447,5.553
			c-3.535,0-5.609-1.654-6.17-2.188C151.489,75.055,151.346,74.915,151.599,74.466z"/>
		<path fill="#292D43" d="M170.047,58.118c0-0.28,0.253-0.532,0.533-0.532h2.607c0.281,0,0.533,0.252,0.533,0.532v18.563
			c0,0.28-0.252,0.533-0.533,0.533h-2.607c-0.28,0-0.533-0.253-0.533-0.533V58.118z"/>
		<path fill="#292D43" d="M180.924,57.809c0-0.279,0.252-0.504,0.534-0.504h0.7L193.825,69.7h0.027V58.118
			c0-0.28,0.225-0.532,0.533-0.532h2.58c0.279,0,0.531,0.252,0.531,0.532V76.99c0,0.28-0.252,0.505-0.531,0.505h-0.674
			l-11.721-12.871h-0.028v12.058c0,0.28-0.225,0.533-0.534,0.533h-2.55c-0.282,0-0.534-0.253-0.534-0.533V57.809z"/>
		<path fill="#292D43" d="M213.364,57.305c2.525,0,4.937,0.98,6.843,2.607c0.224,0.225,0.253,0.561,0.028,0.785l-1.74,1.822
			c-0.223,0.225-0.476,0.225-0.728,0c-1.206-1.064-2.692-1.626-4.234-1.626c-3.505,0-6.281,3.001-6.281,6.506
			c0,3.478,2.776,6.421,6.31,6.421c1.57,0,2.775-0.477,3.336-0.701v-2.383h-2.242c-0.309,0-0.533-0.225-0.533-0.505v-2.216
			c0-0.309,0.225-0.532,0.533-0.532h5.384c0.28,0,0.505,0.253,0.505,0.532v7.179c0,0.225-0.113,0.365-0.225,0.449
			c0,0-2.889,1.822-6.955,1.822c-5.578,0-10.066-4.431-10.066-10.038C203.297,61.819,207.786,57.305,213.364,57.305z"/>
	</g>
	<g>
		<g>
			<polygon fill="#00A5BF" points="36.676,48.793 63.849,62.379 63.849,51.731 36.676,38.145 			"/>
		</g>
	</g>
	<g>
		<g>
			<polygon fill="#D8D923" points="31.925,6.22 4.751,19.806 4.751,62.379 31.925,48.793 			"/>
		</g>
	</g>
	<g>
		<g>
			<polygon fill="#009545" points="4.751,67.693 4.751,86.904 63.848,86.904 63.848,67.693 34.301,52.918 			"/>
		</g>
	</g>
	<g>
		<g>
			<polygon fill="#00A5BF" points="36.676,32.832 63.849,46.417 63.849,35.769 36.676,22.183 			"/>
		</g>
	</g>
	<g>
		<g>
			<polygon fill="#00A5BF" points="36.676,16.87 63.849,30.456 63.849,19.807 36.676,6.219 			"/>
		</g>
	</g>
	<path fill="#292D43" d="M67.287,16.213L35.362,0.251c-0.669-0.334-1.455-0.334-2.125,0L1.313,16.213
		C0.509,16.616,0,17.438,0,18.338V89.28c0,1.312,1.063,2.376,2.376,2.376h63.849c1.312,0,2.375-1.063,2.375-2.376V18.338
		C68.6,17.438,68.092,16.616,67.287,16.213 M36.676,38.145l27.172,13.586v10.648L36.676,48.793V38.145z M36.676,32.832V22.183
		l27.172,13.586v10.647L36.676,32.832z M63.848,30.456L36.676,16.87V6.22l27.172,13.586V30.456z M31.925,6.22v42.573L4.751,62.379
		V19.807L31.925,6.22z M4.751,86.905V67.694l29.549-14.776l29.547,14.776v19.211H4.751z"/>
</g>
</svg>
